<svg width="14" height="14" viewBox="0 0 14 14" fill="none" xmlns="http://www.w3.org/2000/svg">
<path d="M7.54068 5.46484C7.64048 5.17609 8.06329 5.17609 8.16309 5.46484L8.74831 7.15972C8.87712 7.5323 9.09415 7.87082 9.38219 8.14845C9.67023 8.42609 10.0214 8.6352 10.4078 8.75923L12.1643 9.3236C12.4637 9.41985 12.4637 9.82761 12.1643 9.92386L10.4069 10.4882C10.0205 10.6125 9.66952 10.8218 9.38163 11.0995C9.09374 11.3773 8.87691 11.716 8.74831 12.0886L8.16309 13.7826C8.14158 13.8459 8.0999 13.9009 8.04402 13.9399C7.98813 13.979 7.92089 14 7.85189 14C7.78288 14 7.71564 13.979 7.65975 13.9399C7.60387 13.9009 7.5622 13.8459 7.54068 13.7826L6.95546 12.0877C6.82674 11.7153 6.60985 11.3768 6.32197 11.0992C6.03409 10.8215 5.68314 10.6124 5.2969 10.4882L3.53944 9.92386C3.47388 9.90311 3.41678 9.86292 3.37631 9.80902C3.33583 9.75512 3.31404 9.69028 3.31404 9.62373C3.31404 9.55718 3.33583 9.49234 3.37631 9.43844C3.41678 9.38455 3.47388 9.34435 3.53944 9.3236L5.2969 8.75923C5.68314 8.63509 6.03409 8.42592 6.32197 8.14829C6.60985 7.87066 6.82674 7.5322 6.95546 7.15972L7.54068 5.46484ZM4.03574 1.00319C4.04875 0.965301 4.07381 0.932327 4.10736 0.908955C4.14092 0.885584 4.18125 0.873005 4.22264 0.873005C4.26403 0.873005 4.30437 0.885584 4.33792 0.908955C4.37148 0.932327 4.39654 0.965301 4.40955 1.00319L4.76068 2.01995C4.91764 2.4732 5.28601 2.82845 5.756 2.97983L6.81029 3.31845C6.84959 3.331 6.88378 3.35517 6.90801 3.38753C6.93225 3.41989 6.94529 3.45879 6.94529 3.4987C6.94529 3.53862 6.93225 3.57752 6.90801 3.60988C6.88378 3.64224 6.84959 3.66641 6.81029 3.67896L5.756 4.01758C5.52407 4.09182 5.31331 4.21725 5.14052 4.38389C4.96772 4.55054 4.83765 4.75379 4.76068 4.97746L4.40955 5.99422C4.39654 6.03211 4.37148 6.06508 4.33792 6.08845C4.30437 6.11182 4.26403 6.1244 4.22264 6.1244C4.18125 6.1244 4.14092 6.11182 4.10736 6.08845C4.07381 6.06508 4.04875 6.03211 4.03574 5.99422L3.68461 4.97746C3.60764 4.75379 3.47757 4.55054 3.30477 4.38389C3.13198 4.21725 2.92122 4.09182 2.68929 4.01758L1.635 3.67896C1.5957 3.66641 1.56151 3.64224 1.53728 3.60988C1.51304 3.57752 1.5 3.53862 1.5 3.4987C1.5 3.45879 1.51304 3.41989 1.53728 3.38753C1.56151 3.35517 1.5957 3.331 1.635 3.31845L2.68929 2.97983C2.92122 2.90559 3.13198 2.78016 3.30477 2.61352C3.47757 2.44687 3.60764 2.24362 3.68461 2.01995L4.03574 1.00319ZM10.4495 0.0853152C10.4585 0.0604006 10.4753 0.0387964 10.4975 0.0235063C10.5198 0.0082162 10.5465 0 10.5738 0C10.6012 0 10.6278 0.0082162 10.6501 0.0235063C10.6724 0.0387964 10.6892 0.0604006 10.6981 0.0853152L10.9322 0.762568C11.0365 1.06532 11.2824 1.30245 11.5964 1.40307L12.2986 1.62882C12.3244 1.63746 12.3468 1.65365 12.3627 1.67513C12.3786 1.69661 12.3871 1.72233 12.3871 1.7487C12.3871 1.77507 12.3786 1.80078 12.3627 1.82226C12.3468 1.84375 12.3244 1.85993 12.2986 1.86857L11.5964 2.09432C11.4418 2.1442 11.3013 2.22801 11.1861 2.33916C11.0708 2.45031 10.9839 2.58576 10.9322 2.73483L10.6981 3.41208C10.6892 3.43699 10.6724 3.4586 10.6501 3.47389C10.6278 3.48918 10.6012 3.49739 10.5738 3.49739C10.5465 3.49739 10.5198 3.48918 10.4975 3.47389C10.4753 3.4586 10.4585 3.43699 10.4495 3.41208L10.2154 2.73483C10.1637 2.58576 10.0768 2.45031 9.96155 2.33916C9.84629 2.22801 9.70585 2.1442 9.55128 2.09432L8.84993 1.86857C8.82409 1.85993 8.80169 1.84375 8.78584 1.82226C8.76998 1.80078 8.76146 1.77507 8.76146 1.7487C8.76146 1.72233 8.76998 1.69661 8.78584 1.67513C8.80169 1.65365 8.82409 1.63746 8.84993 1.62882L9.55218 1.40307C9.86611 1.30245 10.112 1.06532 10.2163 0.762568L10.4495 0.0853152Z" fill="url(#paint0_linear_21_236)"/>
<defs>
<linearGradient id="paint0_linear_21_236" x1="14.2027" y1="-0.934608" x2="-4.45574" y2="12.4054" gradientUnits="userSpaceOnUse">
<stop offset="0.167334" stop-color="#BC82F3"/>
<stop offset="0.475471" stop-color="#F5B9EA"/>
<stop offset="0.765415" stop-color="#8D99FF"/>
</linearGradient>
</defs>
</svg>
