<svg width="36" height="36" viewBox="0 0 36 36" fill="none" xmlns="http://www.w3.org/2000/svg">
<path d="M0 18C0 8.05888 8.05888 0 18 0C27.9411 0 36 8.05888 36 18C36 27.9411 27.9411 36 18 36C8.05888 36 0 27.9411 0 18Z" fill="#1F242B"/>
<path d="M18.601 9.60528C20.4089 7.79739 23.3398 7.79739 25.1477 9.60528C26.8991 11.3567 26.9538 14.162 25.3119 15.9792L25.1477 16.1519L17.9157 23.3839C16.7968 24.5028 14.9819 24.5028 13.863 23.3839C12.7889 22.3098 12.7459 20.5942 13.7341 19.4688L13.863 19.3313L19.349 13.8453C19.6419 13.5524 20.1168 13.5524 20.4097 13.8453C20.6759 14.1115 20.7001 14.5282 20.4823 14.8218L20.4097 14.9059L14.9237 20.3919C14.3906 20.925 14.3906 21.7902 14.9237 22.3233C15.4212 22.8208 16.208 22.854 16.7442 22.4228L16.855 22.3233L24.087 15.0913C25.3091 13.8692 25.3091 11.888 24.087 10.6659C22.9119 9.49084 21.035 9.44564 19.806 10.5304L19.6617 10.6659L12.4297 17.8979C10.5186 19.809 10.5186 22.9062 12.4297 24.8173C14.2829 26.6705 17.2513 26.7266 19.1721 24.9858L19.349 24.8173L23.738 20.4283C24.0309 20.1354 24.5058 20.1354 24.7987 20.4283C25.0649 20.6945 25.0891 21.1112 24.8713 21.4048L24.7987 21.4889L20.4097 25.8779C17.9128 28.3748 13.8659 28.3748 11.369 25.8779C8.93301 23.4419 8.8736 19.5307 11.1908 17.0227L11.369 16.8373L18.601 9.60528Z" fill="#4B5563"/>
</svg>
