<svg width="24" height="24" viewBox="0 0 24 24" fill="none" xmlns="http://www.w3.org/2000/svg">
<path d="M17.4839 5.33784H16.1129V4.18919C16.1129 4.0064 16.0262 3.83111 15.872 3.70186C15.7177 3.57261 15.5085 3.5 15.2903 3.5C15.0722 3.5 14.8629 3.57261 14.7087 3.70186C14.5544 3.83111 14.4677 4.0064 14.4677 4.18919V5.33784H9.53226V4.18919C9.53226 4.0064 9.44559 3.83111 9.29133 3.70186C9.13707 3.57261 8.92784 3.5 8.70968 3.5C8.49152 3.5 8.28229 3.57261 8.12803 3.70186C7.97376 3.83111 7.8871 4.0064 7.8871 4.18919V5.33784H6.51613C5.7162 5.33784 4.94904 5.60408 4.3834 6.07799C3.81777 6.5519 3.5 7.19466 3.5 7.86486V17.973C3.5 18.6432 3.81777 19.2859 4.3834 19.7598C4.94904 20.2338 5.7162 20.5 6.51613 20.5H17.4839C18.2838 20.5 19.051 20.2338 19.6166 19.7598C20.1822 19.2859 20.5 18.6432 20.5 17.973V7.86486C20.5 7.19466 20.1822 6.5519 19.6166 6.07799C19.051 5.60408 18.2838 5.33784 17.4839 5.33784ZM6.51613 6.71622H7.8871V7.86486C7.8871 8.04765 7.97376 8.22295 8.12803 8.3522C8.28229 8.48144 8.49152 8.55405 8.70968 8.55405C8.92784 8.55405 9.13707 8.48144 9.29133 8.3522C9.44559 8.22295 9.53226 8.04765 9.53226 7.86486V6.71622H14.4677V7.86486C14.4677 8.04765 14.5544 8.22295 14.7087 8.3522C14.8629 8.48144 15.0722 8.55405 15.2903 8.55405C15.5085 8.55405 15.7177 8.48144 15.872 8.3522C16.0262 8.22295 16.1129 8.04765 16.1129 7.86486V6.71622H17.4839C17.8475 6.71622 18.1962 6.83723 18.4533 7.05265C18.7104 7.26806 18.8548 7.56022 18.8548 7.86486V10.3919H5.14516V7.86486C5.14516 7.56022 5.2896 7.26806 5.54671 7.05265C5.80381 6.83723 6.15253 6.71622 6.51613 6.71622ZM17.4839 19.1216H6.51613C6.15253 19.1216 5.80381 19.0006 5.54671 18.7852C5.2896 18.5698 5.14516 18.2776 5.14516 17.973V11.7703H18.8548V17.973C18.8548 18.2776 18.7104 18.5698 18.4533 18.7852C18.1962 19.0006 17.8475 19.1216 17.4839 19.1216Z" fill="white"/>
</svg>
