<svg width="24" height="24" viewBox="0 0 24 24" fill="none" xmlns="http://www.w3.org/2000/svg">
<path d="M8.69398 11.1224C8.69398 10.7895 8.96369 10.5196 9.29639 10.5196H14.8C15.1327 10.5196 15.4024 10.7895 15.4024 11.1224C15.4024 11.4553 15.1327 11.7251 14.8 11.7251H9.29639C8.96369 11.7251 8.69398 11.4553 8.69398 11.1224Z" fill="white"/>
<path d="M11.3928 14.7294C11.3928 14.3965 11.6625 14.1266 11.9952 14.1266H14.8C15.1327 14.1266 15.4024 14.3965 15.4024 14.7294C15.4024 15.0623 15.1327 15.3321 14.8 15.3321H11.9952C11.6625 15.3321 11.3928 15.0623 11.3928 14.7294Z" fill="white"/>
<path fill-rule="evenodd" clip-rule="evenodd" d="M11.9976 4C7.58198 4 4 7.58172 4 12C4 16.4183 7.57957 20 11.9952 20H17.5325C18.8953 20 20 18.8946 20 17.531V12.0048C20 7.58388 16.4159 4 11.9976 4ZM18.4289 17.4751V12.0048C18.4289 8.45209 15.5487 5.57203 11.9981 5.57203C8.44961 5.57203 5.57109 8.45036 5.57109 12.0009C5.57109 15.5515 8.44768 18.4299 11.9961 18.4299H17.4747C18.0017 18.4299 18.4289 18.0024 18.4289 17.4751Z" fill="white"/>
</svg>
