<svg width="24" height="24" viewBox="0 0 24 24" fill="none" xmlns="http://www.w3.org/2000/svg">
<path fill-rule="evenodd" clip-rule="evenodd" d="M6.25574 4C5.00993 4 4 5.00883 4 6.25327V10.3581C4 11.6025 5.00993 12.6114 6.25574 12.6114H8.70383C9.94964 12.6114 10.9596 11.6025 10.9596 10.3581V6.25328C10.9596 5.00883 9.94964 4 8.70383 4H6.25574ZM8.7388 5.24017H6.22077C5.67029 5.24017 5.22404 5.68593 5.22404 6.23581V10.3755C5.22404 10.9254 5.67029 11.3712 6.22077 11.3712H8.7388C9.28927 11.3712 9.73552 10.9254 9.73552 10.3755V6.23581C9.73552 5.68593 9.28927 5.24017 8.7388 5.24017Z" fill="white"/>
<path fill-rule="evenodd" clip-rule="evenodd" d="M6.25574 13.7991C5.00993 13.7991 4 14.808 4 16.0524V17.7467C4 18.9912 5.00993 20 6.25574 20H8.70383C9.94964 20 10.9596 18.9912 10.9596 17.7467V16.0524C10.9596 14.808 9.94964 13.7991 8.70383 13.7991H6.25574ZM8.7388 15.0393H6.22077C5.67029 15.0393 5.22404 15.4851 5.22404 16.0349V17.7467C5.22404 18.2966 5.67029 18.7424 6.22077 18.7424H8.7388C9.28927 18.7424 9.73552 18.2966 9.73552 17.7467V16.0349C9.73552 15.4851 9.28927 15.0393 8.7388 15.0393Z" fill="white"/>
<path fill-rule="evenodd" clip-rule="evenodd" d="M15.2962 11.3886C14.0504 11.3886 13.0404 12.3975 13.0404 13.6419V17.7467C13.0404 18.9912 14.0504 20 15.2962 20H17.7443C18.9901 20 20 18.9912 20 17.7467V13.6419C20 12.3975 18.9901 11.3886 17.7443 11.3886H15.2962ZM17.7792 12.6288H15.2612C14.7107 12.6288 14.2645 13.0746 14.2645 13.6245V17.7642C14.2645 18.3141 14.7107 18.7598 15.2612 18.7598H17.7792C18.3297 18.7598 18.776 18.3141 18.776 17.7642V13.6245C18.776 13.0746 18.3297 12.6288 17.7792 12.6288Z" fill="white"/>
<path fill-rule="evenodd" clip-rule="evenodd" d="M15.2962 4C14.0504 4 13.0404 5.00883 13.0404 6.25327V7.9476C13.0404 9.19205 14.0504 10.2009 15.2962 10.2009H17.7443C18.9901 10.2009 20 9.19205 20 7.9476V6.25328C20 5.00883 18.9901 4 17.7443 4H15.2962ZM17.7792 5.24017H15.2612C14.7107 5.24017 14.2645 5.68593 14.2645 6.23581V7.9476C14.2645 8.49747 14.7107 8.94323 15.2612 8.94323H17.7792C18.3297 8.94323 18.776 8.49747 18.776 7.9476V6.23581C18.776 5.68593 18.3297 5.24017 17.7792 5.24017Z" fill="white"/>
</svg>
