<svg width="24" height="24" viewBox="0 0 24 24" fill="none" xmlns="http://www.w3.org/2000/svg">
<path d="M18.4014 3.5C19.5602 3.5 20.5 4.43976 20.5 5.59861V18.4014C20.5 19.5602 19.5602 20.5 18.4014 20.5H5.59861C4.43976 20.5 3.5 19.5602 3.5 18.4014V5.59861C3.5 4.43976 4.43976 3.5 5.59861 3.5H18.4014ZM5.59861 4.80769C5.16198 4.80769 4.80769 5.16198 4.80769 5.59861V18.4014C4.80769 18.838 5.16198 19.1923 5.59861 19.1923H18.4014C18.838 19.1923 19.1923 18.838 19.1923 18.4014V5.59861C19.1923 5.16198 18.838 4.80769 18.4014 4.80769H5.59861Z" fill="white"/>
<path d="M19.8462 7.85897C20.2073 7.85897 20.5 8.15171 20.5 8.51282C20.5 8.84384 20.254 9.1174 19.9349 9.1607L19.8462 9.16667H4.15385C3.79274 9.16667 3.5 8.87393 3.5 8.51282C3.5 8.1818 3.74598 7.90824 4.06512 7.86494L4.15385 7.85897H19.8462Z" fill="white"/>
<path d="M16.5769 10.8667C16.7575 10.8667 16.9209 10.9399 17.0393 11.0582L17.059 11.0803L17.0829 11.1018C17.1815 11.2004 17.2487 11.3303 17.2684 11.4754L17.2744 11.5641C17.2744 11.9493 16.9621 12.2615 16.5769 12.2615C16.1917 12.2615 15.8795 11.9493 15.8795 11.5641C15.8795 11.1789 16.1917 10.8667 16.5769 10.8667Z" fill="white"/>
<path d="M16.5769 10.8667C16.9621 10.8667 17.2744 11.1789 17.2744 11.5641C17.2744 11.9252 16.9816 12.2179 16.6205 12.2179C16.44 12.2179 16.2765 12.1448 16.1582 12.0264L16.1375 12.0026L16.1146 11.9829C16.016 11.8842 15.9487 11.7543 15.929 11.6092L15.9231 11.5205C15.9231 11.1594 16.2158 10.8667 16.5769 10.8667Z" fill="white"/>
<path d="M13.5248 10.8667C13.7053 10.8667 13.8688 10.9399 13.9871 11.0582L14.0069 11.0803L14.0307 11.1018C14.1293 11.2004 14.1966 11.3303 14.2162 11.4754L14.2222 11.5641C14.2222 11.9493 13.91 12.2615 13.5248 12.2615C13.1396 12.2615 12.8273 11.9493 12.8273 11.5641C12.8273 11.1789 13.1396 10.8667 13.5248 10.8667Z" fill="white"/>
<path d="M13.5248 10.8667C13.91 10.8667 14.2222 11.1789 14.2222 11.5641C14.2222 11.9252 13.9295 12.2179 13.5684 12.2179C13.3878 12.2179 13.2243 12.1448 13.106 12.0264L13.0854 12.0026L13.0624 11.9829C12.9638 11.8842 12.8966 11.7543 12.8769 11.6092L12.8709 11.5205C12.8709 11.1594 13.1637 10.8667 13.5248 10.8667Z" fill="white"/>
<path d="M10.4735 10.8667C10.654 10.8667 10.8175 10.9399 10.9358 11.0582L10.9556 11.0803L10.9794 11.1018C11.078 11.2004 11.1453 11.3303 11.165 11.4754L11.1709 11.5641C11.1709 11.9493 10.8587 12.2615 10.4735 12.2615C10.0883 12.2615 9.77605 11.9493 9.77605 11.5641C9.77605 11.1789 10.0883 10.8667 10.4735 10.8667Z" fill="white"/>
<path d="M10.4735 10.8667C10.8587 10.8667 11.1709 11.1789 11.1709 11.5641C11.1709 11.9252 10.8782 12.2179 10.5171 12.2179C10.3365 12.2179 10.1731 12.1448 10.0547 12.0264L10.0341 12.0026L10.0111 11.9829C9.91255 11.8842 9.84529 11.7543 9.82561 11.6092L9.81964 11.5205C9.81964 11.1594 10.1124 10.8667 10.4735 10.8667Z" fill="white"/>
<path d="M7.42221 13.4821C7.60276 13.4821 7.76622 13.5552 7.88454 13.6736L7.90431 13.6956L7.92813 13.7171C8.02674 13.8158 8.09399 13.9457 8.11367 14.0908L8.11964 14.1795C8.11964 14.5647 7.80739 14.8769 7.42221 14.8769C7.03702 14.8769 6.72477 14.5647 6.72477 14.1795C6.72477 13.7943 7.03702 13.4821 7.42221 13.4821Z" fill="white"/>
<path d="M7.42221 13.4821C7.80739 13.4821 8.11964 13.7943 8.11964 14.1795C8.11964 14.5406 7.8269 14.8333 7.4658 14.8333C7.28524 14.8333 7.12178 14.7601 7.00346 14.6418L6.98282 14.618L6.95987 14.5982C6.86126 14.4996 6.79401 14.3697 6.77433 14.2246L6.76836 14.1359C6.76836 13.7748 7.0611 13.4821 7.42221 13.4821Z" fill="white"/>
<path d="M10.4735 13.4821C10.654 13.4821 10.8175 13.5552 10.9358 13.6736L10.9556 13.6956L10.9794 13.7171C11.078 13.8158 11.1453 13.9457 11.165 14.0908L11.1709 14.1795C11.1709 14.5647 10.8587 14.8769 10.4735 14.8769C10.0883 14.8769 9.77605 14.5647 9.77605 14.1795C9.77605 13.7943 10.0883 13.4821 10.4735 13.4821Z" fill="white"/>
<path d="M10.4735 13.4821C10.8587 13.4821 11.1709 13.7943 11.1709 14.1795C11.1709 14.5406 10.8782 14.8333 10.5171 14.8333C10.3365 14.8333 10.1731 14.7601 10.0547 14.6418L10.0341 14.618L10.0111 14.5982C9.91255 14.4996 9.84529 14.3697 9.82561 14.2246L9.81964 14.1359C9.81964 13.7748 10.1124 13.4821 10.4735 13.4821Z" fill="white"/>
<path d="M13.5248 13.4821C13.7053 13.4821 13.8688 13.5552 13.9871 13.6736L14.0069 13.6956L14.0307 13.7171C14.1293 13.8158 14.1966 13.9457 14.2162 14.0908L14.2222 14.1795C14.2222 14.5647 13.91 14.8769 13.5248 14.8769C13.1396 14.8769 12.8273 14.5647 12.8273 14.1795C12.8273 13.7943 13.1396 13.4821 13.5248 13.4821Z" fill="white"/>
<path d="M13.5248 13.4821C13.91 13.4821 14.2222 13.7943 14.2222 14.1795C14.2222 14.5406 13.9295 14.8333 13.5684 14.8333C13.3878 14.8333 13.2243 14.7601 13.106 14.6418L13.0854 14.618L13.0624 14.5982C12.9638 14.4996 12.8966 14.3697 12.8769 14.2246L12.8709 14.1359C12.8709 13.7748 13.1637 13.4821 13.5248 13.4821Z" fill="white"/>
<path d="M16.5769 13.4821C16.7575 13.4821 16.9209 13.5552 17.0393 13.6736L17.059 13.6956L17.0829 13.7171C17.1815 13.8158 17.2487 13.9457 17.2684 14.0908L17.2744 14.1795C17.2744 14.5647 16.9621 14.8769 16.5769 14.8769C16.1917 14.8769 15.8795 14.5647 15.8795 14.1795C15.8795 13.7943 16.1917 13.4821 16.5769 13.4821Z" fill="white"/>
<path d="M16.5769 13.4821C16.9621 13.4821 17.2744 13.7943 17.2744 14.1795C17.2744 14.5406 16.9816 14.8333 16.6205 14.8333C16.44 14.8333 16.2765 14.7601 16.1582 14.6418L16.1375 14.618L16.1146 14.5982C16.016 14.4996 15.9487 14.3697 15.929 14.2246L15.9231 14.1359C15.9231 13.7748 16.2158 13.4821 16.5769 13.4821Z" fill="white"/>
<path d="M16.5769 16.0974C16.7575 16.0974 16.9209 16.1706 17.0393 16.2889L17.059 16.311L17.0829 16.3325C17.1815 16.4311 17.2487 16.5611 17.2684 16.7061L17.2744 16.7949C17.2744 17.1801 16.9621 17.4923 16.5769 17.4923C16.1917 17.4923 15.8795 17.1801 15.8795 16.7949C15.8795 16.4097 16.1917 16.0974 16.5769 16.0974Z" fill="white"/>
<path d="M16.5769 16.0974C16.9621 16.0974 17.2744 16.4097 17.2744 16.7949C17.2744 17.156 16.9816 17.4487 16.6205 17.4487C16.44 17.4487 16.2765 17.3755 16.1582 17.2572L16.1375 17.2334L16.1146 17.2136C16.016 17.115 15.9487 16.9851 15.929 16.84L15.9231 16.7513C15.9231 16.3902 16.2158 16.0974 16.5769 16.0974Z" fill="white"/>
<path d="M13.5248 16.0974C13.7053 16.0974 13.8688 16.1706 13.9871 16.2889L14.0069 16.311L14.0307 16.3325C14.1293 16.4311 14.1966 16.5611 14.2162 16.7061L14.2222 16.7949C14.2222 17.1801 13.91 17.4923 13.5248 17.4923C13.1396 17.4923 12.8273 17.1801 12.8273 16.7949C12.8273 16.4097 13.1396 16.0974 13.5248 16.0974Z" fill="white"/>
<path d="M13.5248 16.0974C13.91 16.0974 14.2222 16.4097 14.2222 16.7949C14.2222 17.156 13.9295 17.4487 13.5684 17.4487C13.3878 17.4487 13.2243 17.3755 13.106 17.2572L13.0854 17.2334L13.0624 17.2136C12.9638 17.115 12.8966 16.9851 12.8769 16.84L12.8709 16.7513C12.8709 16.3902 13.1637 16.0974 13.5248 16.0974Z" fill="white"/>
<path d="M10.4735 16.0974C10.654 16.0974 10.8175 16.1706 10.9358 16.2889L10.9556 16.311L10.9794 16.3325C11.078 16.4311 11.1453 16.5611 11.165 16.7061L11.1709 16.7949C11.1709 17.1801 10.8587 17.4923 10.4735 17.4923C10.0883 17.4923 9.77605 17.1801 9.77605 16.7949C9.77605 16.4097 10.0883 16.0974 10.4735 16.0974Z" fill="white"/>
<path d="M10.4735 16.0974C10.8587 16.0974 11.1709 16.4097 11.1709 16.7949C11.1709 17.156 10.8782 17.4487 10.5171 17.4487C10.3365 17.4487 10.1731 17.3755 10.0547 17.2572L10.0341 17.2334L10.0111 17.2136C9.91255 17.115 9.84529 16.9851 9.82561 16.84L9.81964 16.7513C9.81964 16.3902 10.1124 16.0974 10.4735 16.0974Z" fill="white"/>
<path d="M7.42221 16.0974C7.60276 16.0974 7.76622 16.1706 7.88454 16.2889L7.90431 16.311L7.92813 16.3325C8.02674 16.4311 8.09399 16.5611 8.11367 16.7061L8.11964 16.7949C8.11964 17.1801 7.80739 17.4923 7.42221 17.4923C7.03702 17.4923 6.72477 17.1801 6.72477 16.7949C6.72477 16.4097 7.03702 16.0974 7.42221 16.0974Z" fill="white"/>
<path d="M7.42221 16.0974C7.80739 16.0974 8.11964 16.4097 8.11964 16.7949C8.11964 17.156 7.8269 17.4487 7.4658 17.4487C7.28524 17.4487 7.12178 17.3755 7.00346 17.2572L6.98282 17.2334L6.95987 17.2136C6.86126 17.115 6.79401 16.9851 6.77433 16.84L6.76836 16.7513C6.76836 16.3902 7.0611 16.0974 7.42221 16.0974Z" fill="white"/>
</svg>
