<svg width="36" height="36" viewBox="0 0 36 36" fill="none" xmlns="http://www.w3.org/2000/svg">
<path d="M0 18C0 8.05888 8.05888 0 18 0C27.9411 0 36 8.05888 36 18C36 27.9411 27.9411 36 18 36C8.05888 36 0 27.9411 0 18Z" fill="#1F242B"/>
<path d="M17.9999 8.5C20.1191 8.50069 21.837 10.2184 21.8378 12.3379V17.4844C21.8385 19.6035 20.1212 21.3225 18.0018 21.3232L17.8046 21.3184C15.775 21.215 14.1628 19.5384 14.162 17.4854V12.3379C14.1627 10.3025 15.7517 8.62462 17.7968 8.50586L17.9999 8.5ZM17.8622 10.0039C16.6307 10.0756 15.6624 11.0982 15.662 12.3379V17.4844C15.6624 18.7755 16.709 19.8228 17.9999 19.8232L18.16 19.8174C19.3776 19.7347 20.338 18.7223 20.3378 17.4854V12.3379C20.3372 11.0469 19.291 10.0005 17.9999 10L18.0087 9.99902L17.8622 10.0039Z" fill="white"/>
<path d="M25 16.9C25.4142 16.9 25.75 17.2358 25.75 17.65C25.75 21.9302 22.2802 25.4 18 25.4C13.7198 25.4 10.25 21.9302 10.25 17.65C10.25 17.2358 10.5858 16.9 11 16.9C11.4142 16.9 11.75 17.2358 11.75 17.65C11.75 21.1018 14.5482 23.9 18 23.9C21.4518 23.9 24.25 21.1018 24.25 17.65C24.25 17.2358 24.5858 16.9 25 16.9Z" fill="white"/>
<path d="M18 23.9C18.3797 23.9 18.6935 24.1821 18.7432 24.5482L18.75 24.65V26.75C18.75 27.1642 18.4142 27.5 18 27.5C17.6203 27.5 17.3065 27.2178 17.2568 26.8518L17.25 26.75V24.65C17.25 24.2358 17.5858 23.9 18 23.9Z" fill="white"/>
</svg>
