<svg width="24" height="24" viewBox="0 0 24 24" fill="none" xmlns="http://www.w3.org/2000/svg">
<path d="M20 2.25C21.4625 2.25 22.6584 3.3917 22.745 4.83248L22.75 5V12C22.75 12.4142 22.4142 12.75 22 12.75C21.6203 12.75 21.3065 12.4678 21.2568 12.1018L21.25 12V5C21.25 4.35279 20.7581 3.82047 20.1278 3.75645L20 3.75H4C3.35279 3.75 2.82047 4.24187 2.75645 4.87219L2.75 5V18C2.75 18.6472 3.24187 19.1795 3.87219 19.2435L4 19.25H14C14.4142 19.25 14.75 19.5858 14.75 20C14.75 20.3797 14.4678 20.6935 14.1018 20.7432L14 20.75H4C2.53747 20.75 1.3416 19.6083 1.25502 18.1675L1.25 18V5C1.25 3.53747 2.3917 2.3416 3.83248 2.25502L4 2.25H20Z" fill="white"/>
<path d="M17 7.25C17.4142 7.25 17.75 7.58579 17.75 8C17.75 8.3797 17.4678 8.69349 17.1018 8.74315L17 8.75H6C5.58579 8.75 5.25 8.41421 5.25 8C5.25 7.6203 5.53215 7.30651 5.89823 7.25685L6 7.25H17Z" fill="white"/>
<path d="M10 10.75C10.4142 10.75 10.75 11.0858 10.75 11.5C10.75 11.8797 10.4678 12.1935 10.1018 12.2432L10 12.25H6C5.58579 12.25 5.25 11.9142 5.25 11.5C5.25 11.1203 5.53215 10.8065 5.89823 10.7568L6 10.75H10Z" fill="white"/>
<path d="M10 14.25C10.4142 14.25 10.75 14.5858 10.75 15C10.75 15.3797 10.4678 15.6935 10.1018 15.7432L10 15.75H6C5.58579 15.75 5.25 15.4142 5.25 15C5.25 14.6203 5.53215 14.3065 5.89823 14.2568L6 14.25H10Z" fill="white"/>
<path d="M15.0842 11.252L15.2044 11.2627L16.135 11.3945C16.8166 11.4919 17.448 11.8081 17.9348 12.2949L21.9963 16.3555C23.0015 17.3608 23.0015 18.991 21.9719 20.0195L21.8235 20.1533C20.805 21.0032 19.2995 20.9397 18.3557 19.9961L14.2942 15.9356C13.8073 15.4487 13.4921 14.8164 13.3948 14.1348L13.2678 13.2481C13.1899 12.7028 13.3735 12.1522 13.7629 11.7627C14.0745 11.4512 14.4888 11.2715 14.9212 11.252H15.0842ZM14.9778 12.751C14.9203 12.7563 14.8652 12.7816 14.8235 12.8233C14.7679 12.8788 14.7422 12.9574 14.7532 13.0352L14.8792 13.9229C14.9306 14.2832 15.0983 14.6176 15.3557 14.875L19.4163 18.9356C19.8099 19.3291 20.4388 19.3558 20.8372 19.0244L20.9358 18.9356C21.3551 18.5161 21.3551 17.8355 20.9358 17.416L16.8743 13.3555C16.617 13.0982 16.2833 12.9314 15.9231 12.8799L15.0794 12.7578L14.9778 12.751Z" fill="white"/>
</svg>
