<svg width="24" height="24" viewBox="0 0 24 24" fill="none" xmlns="http://www.w3.org/2000/svg">
<path d="M11.0769 3.92311C11.4593 3.92311 11.7692 4.23307 11.7692 4.61542C11.7692 4.99777 11.4593 5.30772 11.0769 5.30772H8.30769C6.14104 5.30772 4.38462 7.06414 4.38462 9.23079V15.6923C4.38462 17.859 6.14104 19.6154 8.30769 19.6154H15.6923C17.859 19.6154 19.6154 17.859 19.6154 15.6923V10.1539C19.6154 9.77152 19.9253 9.46156 20.3077 9.46156C20.69 9.46156 21 9.77152 21 10.1539V15.6923C21 18.6237 18.6237 21 15.6923 21H8.30769C5.37633 21 3 18.6237 3 15.6923V9.23079C3 6.29944 5.37633 3.92311 8.30769 3.92311H11.0769Z" fill="white"/>
<path d="M15.6923 15C16.0747 15 16.3846 15.31 16.3846 15.6923C16.3846 16.0747 16.0747 16.3846 15.6923 16.3846H8.30769C7.92534 16.3846 7.61538 16.0747 7.61538 15.6923C7.61538 15.31 7.92534 15 8.30769 15H15.6923Z" fill="white"/>
<path d="M15.8789 3.60826C16.69 2.79728 18.0048 2.79721 18.8158 3.60826L19.4685 4.2609C20.2795 5.07196 20.2794 6.38672 19.4685 7.1978L15.0739 11.5923C14.615 12.0513 14.0191 12.3497 13.3765 12.4415L11.7017 12.6804C11.3421 12.7317 10.9795 12.6108 10.7227 12.354C10.4659 12.0973 10.345 11.7346 10.3964 11.3751L10.6352 9.69929C10.7271 9.05684 11.0255 8.46173 11.4844 8.00278L15.8789 3.60826ZM17.8369 4.58723C17.5665 4.3169 17.1283 4.31697 16.8579 4.58723L12.4634 8.98175C12.2162 9.22891 12.0558 9.54977 12.0063 9.89581L11.8098 11.266L13.1809 11.0704C13.4775 11.028 13.756 10.9045 13.985 10.7143L14.095 10.6134L18.4895 6.21883C18.7597 5.94848 18.7598 5.5102 18.4895 5.23987L17.8369 4.58723Z" fill="white"/>
<path d="M14.6308 4.85627C14.9011 4.5859 15.3395 4.5859 15.6098 4.85627L18.2207 7.46711C18.4911 7.73747 18.4911 8.17582 18.2207 8.44618C17.9503 8.71654 17.512 8.71654 17.2416 8.44618L14.6308 5.83534C14.3604 5.56497 14.3604 5.12663 14.6308 4.85627Z" fill="white"/>
</svg>
