<svg width="24" height="24" viewBox="0 0 24 24" fill="none" xmlns="http://www.w3.org/2000/svg">
<path d="M9.75883 18.8308C10.0619 18.6014 10.4919 18.6634 10.7193 18.9692C11.0216 19.376 11.496 19.6154 11.9999 19.6154C12.5037 19.6154 12.9782 19.376 13.2805 18.9692C13.5078 18.6634 13.9378 18.6014 14.2409 18.8308C14.544 19.0602 14.6054 19.4941 14.3781 19.8C13.8167 20.5554 12.9356 21 11.9999 21C11.0642 21 10.1831 20.5554 9.62163 19.8C9.3943 19.4941 9.45573 19.0602 9.75883 18.8308Z" fill="white"/>
<path d="M12.0002 3C13.6375 3.00007 15.2078 3.65629 16.3656 4.82452C17.4591 5.92805 18.1003 7.40333 18.1682 8.95583L18.1745 9.23077V12.1614L19.2276 13.2269C19.9372 13.9435 20.1792 14.9994 19.8646 15.9501L19.7984 16.1268C19.4127 17.0659 18.5334 17.6959 17.5385 17.7629L17.3616 17.7692H6.63791C5.57133 17.7694 4.60952 17.1211 4.20107 16.1268C3.81675 15.1911 3.9936 14.1221 4.64413 13.3648L4.77187 13.2269L5.82504 12.1614L5.82593 9.23077C5.82593 5.86284 8.47358 3.11886 11.7831 3.00361L12.0002 3ZM12.0002 4.38462C9.41444 4.38462 7.30555 6.44699 7.20156 9.03065L7.19799 9.23077L7.1971 12.3759L7.19978 12.3957C7.21091 12.5565 7.16716 12.7208 7.06757 12.8564L7.00147 12.9339L5.74285 14.2049C5.38114 14.5702 5.27265 15.1197 5.46862 15.5968C5.64826 16.034 6.05097 16.3318 6.51107 16.3783L6.63791 16.3846H17.3625C17.874 16.3845 18.3349 16.0736 18.5309 15.5968C18.7105 15.1595 18.6348 14.6618 18.3424 14.3005L18.2576 14.2049L16.9989 12.9339C16.8398 12.7732 16.7811 12.5705 16.8006 12.3786L16.8024 12.3615V9.23077C16.8024 8.02588 16.3575 6.86733 15.5599 5.97837L15.3955 5.80439C14.495 4.89562 13.2737 4.38468 12.0002 4.38462Z" fill="white"/>
</svg>
