<svg width="24" height="24" viewBox="0 0 24 24" fill="none" xmlns="http://www.w3.org/2000/svg">
<path d="M18.0099 18.0099C18.2761 17.7436 18.6928 17.7194 18.9864 17.9372L19.0705 18.0099L20.5303 19.4697C20.8232 19.7626 20.8232 20.2374 20.5303 20.5303C20.2641 20.7966 19.8474 20.8208 19.5538 20.603L19.4697 20.5303L18.0099 19.0705C17.717 18.7776 17.717 18.3028 18.0099 18.0099Z" fill="white"/>
<path d="M16 11.75C18.3472 11.75 20.25 13.6528 20.25 16C20.25 18.3472 18.3472 20.25 16 20.25C13.6528 20.25 11.75 18.3472 11.75 16C11.75 13.6528 13.6528 11.75 16 11.75ZM16 13.25C14.4812 13.25 13.25 14.4812 13.25 16C13.25 17.5188 14.4812 18.75 16 18.75C17.5188 18.75 18.75 17.5188 18.75 16C18.75 14.4812 17.5188 13.25 16 13.25Z" fill="white"/>
<path d="M17 2.25C19.0043 2.25 20.6413 3.82236 20.7448 5.80084L20.75 6V10.5C20.75 10.9142 20.4142 11.25 20 11.25C19.6203 11.25 19.3065 10.9678 19.2568 10.6018L19.25 10.5V6C19.25 4.80914 18.3248 3.83436 17.154 3.75519L17 3.75H6C4.80914 3.75 3.83436 4.67516 3.75519 5.84595L3.75 6V18C3.75 19.1909 4.67516 20.1656 5.84595 20.2448L6 20.25H11C11.4142 20.25 11.75 20.5858 11.75 21C11.75 21.3797 11.4678 21.6935 11.1018 21.7432L11 21.75H6C3.99574 21.75 2.35873 20.1776 2.2552 18.1992L2.25 18V6C2.25 3.99574 3.82236 2.35873 5.80084 2.2552L6 2.25H17Z" fill="white"/>
<path d="M16 7.25C16.4142 7.25 16.75 7.58579 16.75 8C16.75 8.3797 16.4678 8.69349 16.1018 8.74315L16 8.75H7C6.58579 8.75 6.25 8.41421 6.25 8C6.25 7.6203 6.53215 7.30651 6.89823 7.25685L7 7.25H16Z" fill="white"/>
<path d="M10.5 11.25C10.9142 11.25 11.25 11.5858 11.25 12C11.25 12.3797 10.9678 12.6935 10.6018 12.7432L10.5 12.75H7C6.58579 12.75 6.25 12.4142 6.25 12C6.25 11.6203 6.53215 11.3065 6.89823 11.2568L7 11.25H10.5Z" fill="white"/>
<path d="M9 15.25C9.41421 15.25 9.75 15.5858 9.75 16C9.75 16.3797 9.46785 16.6935 9.10177 16.7432L9 16.75H7C6.58579 16.75 6.25 16.4142 6.25 16C6.25 15.6203 6.53215 15.3065 6.89823 15.2568L7 15.25H9Z" fill="white"/>
</svg>
