<svg width="24" height="24" viewBox="0 0 24 24" fill="none" xmlns="http://www.w3.org/2000/svg">
<path d="M15.9524 15.156C15.8784 15.1564 15.805 15.1419 15.7365 15.1135C15.6681 15.0851 15.6061 15.0434 15.554 14.9906L12.9228 12.3594C12.8172 12.2537 12.7579 12.1104 12.7579 11.961C12.7579 11.8116 12.8172 11.6683 12.9228 11.5626L15.554 8.95389C15.66 8.88519 15.7859 8.85405 15.9117 8.86547C16.0375 8.87689 16.1558 8.9302 16.2476 9.01686C16.3395 9.10353 16.3996 9.21852 16.4183 9.34342C16.4371 9.46832 16.4133 9.59588 16.3509 9.70567L14.0956 11.961L16.3509 14.2163C16.4565 14.322 16.5158 14.4653 16.5158 14.6148C16.5158 14.7642 16.4565 14.9075 16.3509 15.0132C16.2421 15.1114 16.0989 15.1628 15.9524 15.156Z" fill="#4B5563"/>
<path fill-rule="evenodd" clip-rule="evenodd" d="M7.85263 4H16.1053C18.233 4 19.9579 5.72488 19.9579 7.85263V16.1474C19.9579 18.2751 18.233 20 16.1053 20H7.85263C5.72488 20 4 18.2751 4 16.1474V7.85263C4 5.72488 5.72488 4 7.85263 4ZM18.3831 16.1263V7.87368C18.3831 6.60634 17.3557 5.57895 16.0884 5.57895H10.5684V18.4211H16.0884C17.3557 18.4211 18.3831 17.3937 18.3831 16.1263ZM5.57479 7.87368V16.1263C5.57479 17.3937 6.60218 18.4211 7.86953 18.4211H8.88421V5.57895H7.86953C6.60218 5.57895 5.57479 6.60634 5.57479 7.87368Z" fill="#4B5563"/>
</svg>
