<svg width="24" height="24" viewBox="0 0 24 24" fill="none" xmlns="http://www.w3.org/2000/svg">
<path d="M16.7485 13.9893L14.4017 16.1075C14.3523 16.0608 14.0911 15.8239 13.442 15.2498C12.8314 14.7095 12.0985 15.6174 12.5871 16.1075L14.0275 17.3998C14.2403 17.5907 14.5623 17.5898 14.7741 17.3977L17.586 14.8471C18.0746 14.3131 17.2807 13.5429 16.7485 13.9893Z" fill="white"/>
<path d="M7.2977 8.72648C7.2977 8.3881 7.57111 8.11379 7.90839 8.11379H16.0741C16.4114 8.11379 16.6848 8.3881 16.6848 8.72648C16.6848 9.06486 16.4114 9.33917 16.0741 9.33917H7.90839C7.57111 9.33917 7.2977 9.06486 7.2977 8.72648Z" fill="white"/>
<path d="M7.2977 12C7.2977 11.6616 7.57111 11.3873 7.90839 11.3873H14.4166C14.7538 11.3873 15.0273 11.6616 15.0273 12C15.0273 12.3384 14.7538 12.6127 14.4166 12.6127H7.90839C7.57111 12.6127 7.2977 12.3384 7.2977 12Z" fill="white"/>
<path d="M7.2977 15.2735C7.2977 14.9351 7.57111 14.6608 7.90839 14.6608H9.51362C9.85089 14.6608 10.1243 14.9351 10.1243 15.2735C10.1243 15.6119 9.85089 15.8862 9.51362 15.8862H7.90839C7.57111 15.8862 7.2977 15.6119 7.2977 15.2735Z" fill="white"/>
<path fill-rule="evenodd" clip-rule="evenodd" d="M6.3555 4C5.05458 4 3.99999 5.05806 3.99999 6.36324V17.6368C3.99999 18.9419 5.05458 20 6.3555 20H17.6445C18.9454 20 20 18.9419 20 17.6368V6.36324C20 5.05806 18.9454 4 17.6445 4H6.3555ZM17.7143 5.24289H6.2857C5.70752 5.24289 5.23881 5.71314 5.23881 6.29322V17.7149C5.23881 18.295 5.70752 18.7652 6.2857 18.7652H17.7143C18.2925 18.7652 18.7612 18.295 18.7612 17.7149V6.29322C18.7612 5.71314 18.2925 5.24289 17.7143 5.24289Z" fill="white"/>
</svg>
