<svg width="24" height="24" viewBox="0 0 24 24" fill="none" xmlns="http://www.w3.org/2000/svg">
<path d="M11.1 9.37975C11.4728 9.37975 11.775 9.68578 11.775 10.0633C11.775 10.4093 11.5211 10.6953 11.1916 10.7406L11.1 10.7468H7.5C7.12721 10.7468 6.825 10.4408 6.825 10.0633C6.825 9.71724 7.07894 9.43125 7.40841 9.38599L7.5 9.37975H11.1Z" fill="white"/>
<path d="M8.175 3C8.51673 3 8.79914 3.25715 8.84384 3.59079L8.85 3.68354V6.41772C8.85 6.79523 8.54779 7.10127 8.175 7.10127C7.83327 7.10127 7.55086 6.84411 7.50616 6.51047L7.5 6.41772V3.68354C7.5 3.30603 7.80221 3 8.175 3Z" fill="white"/>
<path d="M16.275 3C16.6167 3 16.8991 3.25715 16.9438 3.59079L16.95 3.68354V6.41772C16.95 6.79523 16.6478 7.10127 16.275 7.10127C15.9333 7.10127 15.6509 6.84411 15.6062 6.51047L15.6 6.41772V3.68354C15.6 3.30603 15.9022 3 16.275 3Z" fill="white"/>
<path d="M17.5385 4.59494C19.3885 4.59494 20.8996 6.02797 20.9952 7.83115L21 8.01266L20.9952 12.7975C20.9952 13.175 20.6852 13.481 20.3029 13.481C19.9524 13.481 19.6628 13.2239 19.6169 12.8902L19.6106 12.7975L19.6154 8.01266C19.6154 6.92731 18.7614 6.03891 17.6807 5.96676L17.5385 5.96203H6.46154C5.36228 5.96203 4.46248 6.80521 4.38941 7.87226L4.38462 8.01266V17.5823C4.38462 18.6676 5.23861 19.556 6.31934 19.6282L6.46154 19.6329H9.23077C9.61312 19.6329 9.92308 19.9389 9.92308 20.3165C9.92308 20.6625 9.66263 20.9485 9.32471 20.9938L9.23077 21H6.46154C4.61145 21 3.10036 19.567 3.0048 17.7638L3 17.5823V8.01266C3 6.18599 4.45141 4.69403 6.2777 4.59967L6.46154 4.59494H17.5385Z" fill="white"/>
<path d="M8.4 13.0253C8.77279 13.0253 9.075 13.3313 9.075 13.7089C9.075 14.0549 8.82106 14.3409 8.49159 14.3862L8.4 14.3924H7.5C7.12721 14.3924 6.825 14.0864 6.825 13.7089C6.825 13.3628 7.07894 13.0768 7.40841 13.0316L7.5 13.0253H8.4Z" fill="white"/>
<path fill-rule="evenodd" clip-rule="evenodd" d="M12 13.7089C11.5029 13.7089 11.1 14.1169 11.1 14.6203V20.0886C11.1 20.592 11.5029 21 12 21H17.4C17.8971 21 18.3 20.592 18.3 20.0886V14.6203C18.3 14.1169 17.8971 13.7089 17.4 13.7089H12ZM16.725 14.6203H12.675C12.3022 14.6203 12 14.9263 12 15.3038V19.4051C12 19.7826 12.3022 20.0886 12.675 20.0886H16.725C17.0978 20.0886 17.4 19.7826 17.4 19.4051V15.3038C17.4 14.9263 17.0978 14.6203 16.725 14.6203Z" fill="white"/>
<path d="M18.36 18.0835C17.88 17.719 17.88 16.9899 18.36 16.6253L19.56 15.7139C20.1533 15.2633 21 15.692 21 16.443V18.2658C21 19.0169 20.1533 19.4456 19.56 18.9949L18.36 18.0835Z" fill="white"/>
<path d="M12.675 14.6203H16.725C17.0978 14.6203 17.4 14.9263 17.4 15.3038V19.4051C17.4 19.7826 17.0978 20.0886 16.725 20.0886H12.675C12.3022 20.0886 12 19.7826 12 19.4051V15.3038C12 14.9263 12.3022 14.6203 12.675 14.6203Z" fill="white"/>
</svg>
